<?xml version='1.0' encoding='utf-8'?>
<svg xmlns="http://www.w3.org/2000/svg" width="1748" height="1398" viewBox="0 0 1748 1398">
  <defs>
    <style>text { font-family: 'Inter', 'Helvetica Neue', Arial, sans-serif; fill: #0f172a; }
.column-title { font-size: 16px; font-weight: 600; }
.edge-label { font-size: 12px; fill: #1f2937; background: #ffffff; }
</style>
    <marker id="arrowhead" markerWidth="10" markerHeight="7" refX="10" refY="3.5" orient="auto" markerUnits="strokeWidth">
      <path d="M 0 0 L 10 3.5 L 0 7 z" fill="#1f2937" />
    </marker>
  </defs>
  <g>
    <rect x="64.00" y="48.00" width="260.00" height="318.00" rx="18" fill="#e2e8f0" stroke="#cbd5f5" />
    <text x="194.00" y="74.00" text-anchor="middle" class="column-title">Launch &amp; Configuration Services</text>
  </g>
  <g>
    <rect x="404.00" y="48.00" width="260.00" height="236.00" rx="18" fill="#e2e8f0" stroke="#cbd5f5" />
    <text x="534.00" y="74.00" text-anchor="middle" class="column-title">Dependency Wiring</text>
  </g>
  <g>
    <rect x="744.00" y="48.00" width="260.00" height="482.00" rx="18" fill="#e2e8f0" stroke="#cbd5f5" />
    <text x="874.00" y="74.00" text-anchor="middle" class="column-title">GameLoop Orchestration</text>
  </g>
  <g>
    <rect x="1084.00" y="48.00" width="260.00" height="1302.00" rx="18" fill="#e2e8f0" stroke="#cbd5f5" />
    <text x="1214.00" y="74.00" text-anchor="middle" class="column-title">Peripheral &amp; Signal Services</text>
  </g>
  <g>
    <rect x="1424.00" y="48.00" width="260.00" height="646.00" rx="18" fill="#e2e8f0" stroke="#cbd5f5" />
    <text x="1554.00" y="74.00" text-anchor="middle" class="column-title">Display &amp; Device Services</text>
  </g>
  <g fill="none" stroke="#1f2937" stroke-width="1.6">
    <path d="M 194.00 174.00 C 194.00 183.00 194.00 183.00 194.00 192.00" marker-end="url(#arrowhead)" />
    <path d="M 306.00 224.00 C 346.00 224.00 382.00 142.00 422.00 142.00" marker-end="url(#arrowhead)" />
    <path d="M 534.00 174.00 C 534.00 183.00 534.00 183.00 534.00 192.00" marker-end="url(#arrowhead)" />
    <path d="M 646.00 224.00 C 686.00 224.00 722.00 142.00 762.00 142.00" marker-end="url(#arrowhead)" />
    <path d="M 762.00 142.00 C 722.00 142.00 346.00 306.00 306.00 306.00" marker-end="url(#arrowhead)" />
    <path d="M 306.00 306.00 C 346.00 306.00 722.00 224.00 762.00 224.00" marker-end="url(#arrowhead)" />
    <path d="M 874.00 174.00 C 874.00 183.00 874.00 183.00 874.00 192.00" marker-end="url(#arrowhead)" />
    <path d="M 874.00 174.00 C 874.00 306.00 874.00 306.00 874.00 438.00" marker-end="url(#arrowhead)" />
    <path d="M 646.00 224.00 C 686.00 224.00 722.00 224.00 762.00 224.00" marker-end="url(#arrowhead)" />
    <path d="M 646.00 224.00 C 686.00 224.00 1062.00 142.00 1102.00 142.00" marker-end="url(#arrowhead)" />
    <path d="M 874.00 256.00 C 874.00 265.00 874.00 265.00 874.00 274.00" marker-end="url(#arrowhead)" />
    <path d="M 874.00 338.00 C 874.00 347.00 874.00 347.00 874.00 356.00" marker-end="url(#arrowhead)" />
    <path d="M 874.00 420.00 C 874.00 429.00 874.00 429.00 874.00 438.00" marker-end="url(#arrowhead)" />
    <path d="M 986.00 470.00 C 1026.00 470.00 1402.00 142.00 1442.00 142.00" marker-end="url(#arrowhead)" />
    <path d="M 1554.00 174.00 C 1554.00 183.00 1554.00 183.00 1554.00 192.00" marker-end="url(#arrowhead)" />
    <path d="M 1554.00 174.00 C 1554.00 224.00 1554.00 224.00 1554.00 274.00" marker-end="url(#arrowhead)" />
    <path d="M 1554.00 338.00 C 1554.00 347.00 1554.00 347.00 1554.00 356.00" marker-end="url(#arrowhead)" />
    <path d="M 1554.00 420.00 C 1554.00 429.00 1554.00 429.00 1554.00 438.00" marker-end="url(#arrowhead)" />
    <path d="M 1554.00 338.00 C 1554.00 429.00 1554.00 429.00 1554.00 520.00" marker-end="url(#arrowhead)" />
    <path d="M 1554.00 584.00 C 1554.00 593.00 1554.00 593.00 1554.00 602.00" marker-end="url(#arrowhead)" />
    <path d="M 986.00 142.00 C 1026.00 142.00 1062.00 142.00 1102.00 142.00" marker-end="url(#arrowhead)" />
    <path d="M 986.00 142.00 C 1026.00 142.00 1062.00 224.00 1102.00 224.00" marker-end="url(#arrowhead)" />
    <path d="M 986.00 142.00 C 1026.00 142.00 1062.00 880.00 1102.00 880.00" marker-end="url(#arrowhead)" />
    <path d="M 1102.00 224.00 C 1062.00 224.00 1026.00 388.00 986.00 388.00" marker-end="url(#arrowhead)" />
    <path d="M 1214.00 256.00 C 1214.00 388.00 1214.00 388.00 1214.00 520.00" marker-end="url(#arrowhead)" />
    <path d="M 1214.00 174.00 C 1214.00 470.00 1214.00 470.00 1214.00 766.00" marker-end="url(#arrowhead)" />
    <path d="M 1214.00 174.00 C 1214.00 388.00 1214.00 388.00 1214.00 602.00" marker-end="url(#arrowhead)" />
    <path d="M 1214.00 174.00 C 1214.00 429.00 1214.00 429.00 1214.00 684.00" marker-end="url(#arrowhead)" />
    <path d="M 1214.00 174.00 C 1214.00 511.00 1214.00 511.00 1214.00 848.00" marker-end="url(#arrowhead)" />
    <path d="M 1214.00 748.00 C 1214.00 839.00 1214.00 839.00 1214.00 930.00" marker-end="url(#arrowhead)" />
    <path d="M 1214.00 666.00 C 1214.00 839.00 1214.00 839.00 1214.00 1012.00" marker-end="url(#arrowhead)" />
    <path d="M 1214.00 748.00 C 1214.00 921.00 1214.00 921.00 1214.00 1094.00" marker-end="url(#arrowhead)" />
    <path d="M 1214.00 174.00 C 1214.00 675.00 1214.00 675.00 1214.00 1176.00" marker-end="url(#arrowhead)" />
    <path d="M 1214.00 174.00 C 1214.00 716.00 1214.00 716.00 1214.00 1258.00" marker-end="url(#arrowhead)" />
    <path d="M 1214.00 994.00 C 1214.00 716.00 1214.00 716.00 1214.00 438.00" marker-end="url(#arrowhead)" />
    <path d="M 1214.00 912.00 C 1214.00 593.00 1214.00 593.00 1214.00 274.00" marker-end="url(#arrowhead)" />
    <path d="M 1214.00 912.00 C 1214.00 634.00 1214.00 634.00 1214.00 356.00" marker-end="url(#arrowhead)" />
    <path d="M 1214.00 1076.00 C 1214.00 716.00 1214.00 716.00 1214.00 356.00" marker-end="url(#arrowhead)" />
    <path d="M 1214.00 1158.00 C 1214.00 798.00 1214.00 798.00 1214.00 438.00" marker-end="url(#arrowhead)" />
    <path d="M 1102.00 1208.00 C 1062.00 1208.00 1026.00 388.00 986.00 388.00" marker-end="url(#arrowhead)" />
    <path d="M 1102.00 1290.00 C 1062.00 1290.00 1026.00 388.00 986.00 388.00" marker-end="url(#arrowhead)" />
    <path d="M 1214.00 338.00 C 1214.00 388.00 1214.00 388.00 1214.00 438.00" marker-end="url(#arrowhead)" />
    <path d="M 1102.00 306.00 C 1062.00 306.00 1026.00 388.00 986.00 388.00" marker-end="url(#arrowhead)" />
    <path d="M 1214.00 338.00 C 1214.00 429.00 1214.00 429.00 1214.00 520.00" marker-end="url(#arrowhead)" />
    <path d="M 1214.00 420.00 C 1214.00 429.00 1214.00 429.00 1214.00 438.00" marker-end="url(#arrowhead)" />
    <path d="M 1214.00 420.00 C 1214.00 470.00 1214.00 470.00 1214.00 520.00" marker-end="url(#arrowhead)" />
    <path d="M 1102.00 470.00 C 1062.00 470.00 1026.00 224.00 986.00 224.00" marker-end="url(#arrowhead)" />
    <path d="M 1102.00 470.00 C 1062.00 470.00 1026.00 388.00 986.00 388.00" marker-end="url(#arrowhead)" />
    <path d="M 1214.00 502.00 C 1214.00 511.00 1214.00 511.00 1214.00 520.00" marker-end="url(#arrowhead)" />
  </g>
  <rect x="459.50" y="241.00" width="149.00" height="20.00" rx="4" fill="#ffffff" stroke="#d1d5db" opacity="0.95" />
  <text x="534.00" y="251.00" text-anchor="middle" dominant-baseline="middle" class="edge-label">adds modes &amp; scenes</text>
  <g>
    <rect x="82.00" y="110.00" width="224.00" height="64.00" rx="12" fill="#0f172a" stroke="#0f172a" />
    <text x="194.00" y="142.00" fill="#f8fafc" text-anchor="middle">
      <tspan x="194.00">CLI (Typer `totem run`)</tspan>
    </text>
    <rect x="82.00" y="192.00" width="224.00" height="64.00" rx="12" fill="#0f172a" stroke="#0f172a" />
    <text x="194.00" y="224.00" fill="#f8fafc" text-anchor="middle">
      <tspan x="194.00">Configuration Registry</tspan>
    </text>
    <rect x="82.00" y="274.00" width="224.00" height="64.00" rx="12" fill="#0f172a" stroke="#0f172a" />
    <text x="194.00" y="297.00" fill="#f8fafc" text-anchor="middle">
      <tspan x="194.00">Program Configuration</tspan>
      <tspan x="194.00" dy="18">`configure(loop)`</tspan>
    </text>
    <rect x="422.00" y="110.00" width="224.00" height="64.00" rx="12" fill="#0f172a" stroke="#0f172a" />
    <text x="534.00" y="133.00" fill="#f8fafc" text-anchor="middle">
      <tspan x="534.00">Runtime Container Builder</tspan>
      <tspan x="534.00" dy="18">(heart.runtime.container.build_runtime_container)</tspan>
    </text>
    <rect x="422.00" y="192.00" width="224.00" height="64.00" rx="12" fill="#0f172a" stroke="#0f172a" />
    <text x="534.00" y="215.00" fill="#f8fafc" text-anchor="middle">
      <tspan x="534.00">Lagom Container</tspan>
      <tspan x="534.00" dy="18">(shared runtime services)</tspan>
    </text>
    <rect x="762.00" y="110.00" width="224.00" height="64.00" rx="12" fill="#1d4ed8" stroke="#1d4ed8" />
    <text x="874.00" y="133.00" fill="#f8fafc" text-anchor="middle">
      <tspan x="874.00">GameLoop Service</tspan>
      <tspan x="874.00" dy="18">(heart.runtime.game_loop.GameLoop)</tspan>
    </text>
    <rect x="762.00" y="192.00" width="224.00" height="64.00" rx="12" fill="#1d4ed8" stroke="#1d4ed8" />
    <text x="874.00" y="224.00" fill="#f8fafc" text-anchor="middle">
      <tspan x="874.00">GameModes / Mode Router</tspan>
    </text>
    <rect x="762.00" y="274.00" width="224.00" height="64.00" rx="12" fill="#0f172a" stroke="#0f172a" />
    <text x="874.00" y="297.00" fill="#f8fafc" text-anchor="middle">
      <tspan x="874.00">Native Scene Bridge</tspan>
      <tspan x="874.00" dy="18">(optional PyO3 scene manager)</tspan>
    </text>
    <rect x="762.00" y="356.00" width="224.00" height="64.00" rx="12" fill="#0f172a" stroke="#0f172a" />
    <text x="874.00" y="388.00" fill="#f8fafc" text-anchor="middle">
      <tspan x="874.00">Mode Services &amp; Renderers</tspan>
    </text>
    <rect x="762.00" y="438.00" width="224.00" height="64.00" rx="12" fill="#0f172a" stroke="#0f172a" />
    <text x="874.00" y="470.00" fill="#f8fafc" text-anchor="middle">
      <tspan x="874.00">ComposedRenderer Batch Composition</tspan>
    </text>
    <rect x="1102.00" y="110.00" width="224.00" height="64.00" rx="12" fill="#0369a1" stroke="#0369a1" />
    <text x="1214.00" y="133.00" fill="#f8fafc" text-anchor="middle">
      <tspan x="1214.00">PeripheralManager</tspan>
      <tspan x="1214.00" dy="18">(background threads)</tspan>
    </text>
    <rect x="1102.00" y="192.00" width="224.00" height="64.00" rx="12" fill="#0369a1" stroke="#0369a1" />
    <text x="1214.00" y="224.00" fill="#f8fafc" text-anchor="middle">
      <tspan x="1214.00">FrameTickController</tspan>
    </text>
    <rect x="1102.00" y="274.00" width="224.00" height="64.00" rx="12" fill="#0369a1" stroke="#0369a1" />
    <text x="1214.00" y="306.00" fill="#f8fafc" text-anchor="middle">
      <tspan x="1214.00">KeyboardController</tspan>
    </text>
    <rect x="1102.00" y="356.00" width="224.00" height="64.00" rx="12" fill="#0369a1" stroke="#0369a1" />
    <text x="1214.00" y="388.00" fill="#f8fafc" text-anchor="middle">
      <tspan x="1214.00">GamepadController</tspan>
    </text>
    <rect x="1102.00" y="438.00" width="224.00" height="64.00" rx="12" fill="#0369a1" stroke="#0369a1" />
    <text x="1214.00" y="461.00" fill="#f8fafc" text-anchor="middle">
      <tspan x="1214.00">Navigation / Mandelbrot /</tspan>
      <tspan x="1214.00" dy="18">Accelerometer Debug Profiles</tspan>
    </text>
    <rect x="1102.00" y="520.00" width="224.00" height="64.00" rx="12" fill="#0369a1" stroke="#0369a1" />
    <text x="1214.00" y="552.00" fill="#f8fafc" text-anchor="middle">
      <tspan x="1214.00">InputDebugTap</tspan>
    </text>
    <rect x="1102.00" y="602.00" width="224.00" height="64.00" rx="12" fill="#0369a1" stroke="#0369a1" />
    <text x="1214.00" y="625.00" fill="#f8fafc" text-anchor="middle">
      <tspan x="1214.00">Input Scheduler</tspan>
      <tspan x="1214.00" dy="18">(shared bounded pool)</tspan>
    </text>
    <rect x="1102.00" y="684.00" width="224.00" height="64.00" rx="12" fill="#0369a1" stroke="#0369a1" />
    <text x="1214.00" y="707.00" fill="#f8fafc" text-anchor="middle">
      <tspan x="1214.00">Blocking IO Scheduler</tspan>
      <tspan x="1214.00" dy="18">(shared bounded pool)</tspan>
    </text>
    <rect x="1102.00" y="766.00" width="224.00" height="64.00" rx="12" fill="#0369a1" stroke="#0369a1" />
    <text x="1214.00" y="789.00" fill="#f8fafc" text-anchor="middle">
      <tspan x="1214.00">Interval Scheduler</tspan>
      <tspan x="1214.00" dy="18">(shared event loop)</tspan>
    </text>
    <rect x="1102.00" y="848.00" width="224.00" height="64.00" rx="12" fill="#0369a1" stroke="#0369a1" />
    <text x="1214.00" y="871.00" fill="#f8fafc" text-anchor="middle">
      <tspan x="1214.00">Frame Thread Handoff Queue</tspan>
      <tspan x="1214.00" dy="18">(drained in `PeripheralRuntime.tick()`)</tspan>
    </text>
    <rect x="1102.00" y="930.00" width="224.00" height="64.00" rx="12" fill="#0369a1" stroke="#0369a1" />
    <text x="1214.00" y="962.00" fill="#f8fafc" text-anchor="middle">
      <tspan x="1214.00">Switch / BluetoothSwitch</tspan>
    </text>
    <rect x="1102.00" y="1012.00" width="224.00" height="64.00" rx="12" fill="#0369a1" stroke="#0369a1" />
    <text x="1214.00" y="1044.00" fill="#f8fafc" text-anchor="middle">
      <tspan x="1214.00">Gamepad</tspan>
    </text>
    <rect x="1102.00" y="1094.00" width="224.00" height="64.00" rx="12" fill="#0369a1" stroke="#0369a1" />
    <text x="1214.00" y="1126.00" fill="#f8fafc" text-anchor="middle">
      <tspan x="1214.00">Accelerometer</tspan>
    </text>
    <rect x="1102.00" y="1176.00" width="224.00" height="64.00" rx="12" fill="#0369a1" stroke="#0369a1" />
    <text x="1214.00" y="1208.00" fill="#f8fafc" text-anchor="middle">
      <tspan x="1214.00">HeartRateManager</tspan>
    </text>
    <rect x="1102.00" y="1258.00" width="224.00" height="64.00" rx="12" fill="#0369a1" stroke="#0369a1" />
    <text x="1214.00" y="1290.00" fill="#f8fafc" text-anchor="middle">
      <tspan x="1214.00">PhoneText</tspan>
    </text>
    <rect x="1442.00" y="110.00" width="224.00" height="64.00" rx="12" fill="#7c3aed" stroke="#7c3aed" />
    <text x="1554.00" y="133.00" fill="#f8fafc" text-anchor="middle">
      <tspan x="1554.00">Display Service</tspan>
      <tspan x="1554.00" dy="18">pygame.display.flip</tspan>
    </text>
    <rect x="1442.00" y="192.00" width="224.00" height="64.00" rx="12" fill="#7c3aed" stroke="#7c3aed" />
    <text x="1554.00" y="224.00" fill="#f8fafc" text-anchor="middle">
      <tspan x="1554.00">LocalScreen Window</tspan>
    </text>
    <rect x="1442.00" y="274.00" width="224.00" height="64.00" rx="12" fill="#0f172a" stroke="#0f172a" />
    <text x="1554.00" y="297.00" fill="#f8fafc" text-anchor="middle">
      <tspan x="1554.00">Frame Capture</tspan>
      <tspan x="1554.00" dy="18">(share surface)</tspan>
    </text>
    <rect x="1442.00" y="356.00" width="224.00" height="64.00" rx="12" fill="#0f172a" stroke="#0f172a" />
    <text x="1554.00" y="388.00" fill="#f8fafc" text-anchor="middle">
      <tspan x="1554.00">Device Bridge</tspan>
    </text>
    <rect x="1442.00" y="438.00" width="224.00" height="64.00" rx="12" fill="#7c3aed" stroke="#7c3aed" />
    <text x="1554.00" y="461.00" fill="#f8fafc" text-anchor="middle">
      <tspan x="1554.00">LEDMatrix Driver</tspan>
      <tspan x="1554.00" dy="18">(rgbmatrix)</tspan>
    </text>
    <rect x="1442.00" y="520.00" width="224.00" height="64.00" rx="12" fill="#7c3aed" stroke="#7c3aed" />
    <text x="1554.00" y="552.00" fill="#f8fafc" text-anchor="middle">
      <tspan x="1554.00">AverageColorLED Peripheral</tspan>
    </text>
    <rect x="1442.00" y="602.00" width="224.00" height="64.00" rx="12" fill="#7c3aed" stroke="#7c3aed" />
    <text x="1554.00" y="634.00" fill="#f8fafc" text-anchor="middle">
      <tspan x="1554.00">Single LED Device</tspan>
    </text>
  </g>
</svg>